<?xml version="1.0" encoding="iso-8859-1"?>
<!-- Uploaded to: SVG Repo, www.svgrepo.com, Generator: SVG Repo Mixer Tools -->
<svg height="800px" width="800px" version="1.1" id="Layer_1" xmlns="http://www.w3.org/2000/svg" xmlns:xlink="http://www.w3.org/1999/xlink" 
	 viewBox="0 0 512.001 512.001" xml:space="preserve">
<g>
	<path style="fill:#FFA81D;" d="M93.244,387.381c-9.052,0-16.392-7.338-16.392-16.392v-61.947c0-9.052,7.338-16.392,16.392-16.392
		s16.392,7.338,16.392,16.392v61.947C109.636,380.041,102.296,387.381,93.244,387.381z"/>
	<path style="fill:#FFA81D;" d="M151.448,387.381c-9.052,0-16.392-7.338-16.392-16.392v-61.947c0-9.052,7.338-16.392,16.392-16.392
		c9.052,0,16.392,7.338,16.392,16.392v61.947C167.84,380.041,160.5,387.381,151.448,387.381z"/>
	<path style="fill:#FFA81D;" d="M35.04,388.082c-9.052,0-16.392-7.338-16.392-16.392v-61.947c0-9.052,7.338-16.392,16.392-16.392
		s16.392,7.338,16.392,16.392v61.947C51.432,380.742,44.092,388.082,35.04,388.082z"/>
</g>
<g>
	<path style="fill:#C1780C;" d="M35.04,293.351v94.729c9.052,0,16.392-7.338,16.392-16.392v-61.947
		C51.432,300.691,44.092,293.351,35.04,293.351z"/>
	<path style="fill:#C1780C;" d="M93.244,292.651v94.729c9.052,0,16.392-7.338,16.392-16.392v-61.947
		C109.636,299.99,102.296,292.651,93.244,292.651z"/>
	<path style="fill:#C1780C;" d="M151.448,292.651v94.729c9.052,0,16.392-7.338,16.392-16.392v-61.947
		C167.84,299.99,160.5,292.651,151.448,292.651z"/>
</g>
<path style="fill:#E61F00;" d="M312.539,78.565c0.621,0.639,0.799,1.587,0.453,2.409c-0.346,0.821-1.151,1.354-2.042,1.354h-73.503
	V33.153h73.503c0.891,0,1.695,0.534,2.042,1.354c0.347,0.821,0.169,1.77-0.453,2.409l-20.261,20.825L312.539,78.565z"/>
<path style="fill:#7E4F1F;" d="M237.448,450.543c-9.052,0-16.392-7.338-16.392-16.392V33.153c0-9.052,7.338-16.392,16.392-16.392
	c9.052,0,16.392,7.338,16.392,16.392v400.999C253.839,443.205,246.5,450.543,237.448,450.543z"/>
<path style="fill:#5E3C16;" d="M237.448,16.761v419.085h-16.305c0.849,8.256,7.824,14.697,16.304,14.697
	c9.052,0,16.392-7.338,16.392-16.392V33.153C253.839,24.101,246.5,16.761,237.448,16.761z"/>
<path style="fill:#E61F00;" d="M354.693,248.473c-2.299,5.742-7.865,9.508-14.049,9.508c-67.534,0-135.069,0-202.603,0
	c-2.924,0-5.66-1.439-7.318-3.847c-1.658-2.409-2.028-5.479-0.984-8.21c15.438-40.371,15.438-85.049,0-125.42
	c-1.045-2.732-0.678-5.803,0.98-8.211c1.658-2.409,4.396-3.846,7.322-3.846c67.534,0,135.069,0,202.603,0
	c6.184,0,11.751,3.767,14.049,9.508C371.462,159.834,371.462,206.591,354.693,248.473z"/>
<path style="fill:#990E00;" d="M354.693,117.952c-2.298-5.74-7.865-9.508-14.049-9.508c-34.578,0-69.157,0-103.735,0
	c22.284,47.355,22.284,102.181,0,149.535c34.578,0,69.157,0,103.735,0c6.185,0,11.75-3.766,14.049-9.508
	C371.462,206.591,371.462,159.834,354.693,117.952z"/>
<path style="fill:#C27526;" d="M371.262,313.973c-20.772,0-40.026,10.881-50.741,28.675l-51.308,85.208H174.21v-56.869H16.392
	v32.576c0,16.893,13.694,30.587,30.587,30.587h22.249v30.502c0,16.893,13.694,30.587,30.587,30.587h258.306
	c16.893,0,30.587-13.694,30.587-30.587v-30.502h0.678c37.157,0,70.381-23.146,83.256-58.001l22.967-62.178H371.262V313.973z"/>
<path style="fill:#7E4F1F;" d="M371.262,313.973c-20.772,0-40.026,10.881-50.741,28.675l-51.308,85.208h-31.93v67.384h120.838
	c16.893,0,30.587-13.694,30.587-30.587v-30.502h0.678c37.157,0,70.381-23.146,83.256-58.001l22.967-62.178H371.262V313.973z"/>
<path style="fill:#F7DC4D;" d="M291.498,422.92c-2.963,4.935-8.297,7.954-14.054,7.954H174.211c-9.052,0-16.392-7.338-16.392-16.392
	v-27.101H16.392C7.339,387.381,0,380.042,0,370.989s7.338-16.392,16.392-16.392h157.819c9.052,0,16.392,7.338,16.392,16.392v27.101
	h77.564l38.313-63.814c13.591-22.635,38.433-36.695,64.834-36.695h124.296c9.052,0,16.392,7.338,16.392,16.392
	s-7.338,16.392-16.392,16.392H371.314c-14.955,0-29.028,7.966-36.727,20.788L291.498,422.92z"/>
<path style="fill:#C6C5CA;" d="M322.145,108.444c-13.113,0-26.227,0-39.34,0c22.284,47.355,22.284,102.181,0,149.535
	c13.113,0,26.227,0,39.34,0C344.429,210.626,344.429,155.799,322.145,108.444z"/>
<path style="fill:#FCFCFC;" d="M189.79,108.444c-13.113,0-26.227,0-39.34,0c22.284,47.355,22.284,102.181,0,149.535
	c13.113,0,26.227,0,39.34,0C212.074,210.626,212.074,155.799,189.79,108.444z"/>
<path style="fill:#FFA81D;" d="M512,313.973c0-9.052-7.338-16.392-16.392-16.392H371.314c-26.401,0-51.243,14.061-64.834,36.695
	l-38.313,63.814h-30.719v32.783h39.997c5.756,0,11.09-3.019,14.054-7.954l43.089-71.767c7.699-12.822,21.773-20.788,36.727-20.788
	h124.296C504.662,330.365,512,323.026,512,313.973z"/>
<path style="fill:#FCFCFC;" d="M255.968,108.444c-13.113,0-26.227,0-39.34,0c22.284,47.355,22.284,102.181,0,149.535
	c13.113,0,26.227,0,39.34,0C278.252,210.626,278.252,155.799,255.968,108.444z"/>
<path style="fill:#C6C5CA;" d="M255.968,108.444c-6.352,0-12.706,0-19.058,0c22.284,47.355,22.284,102.181,0,149.535
	c6.352,0,12.706,0,19.058,0C278.252,210.626,278.252,155.799,255.968,108.444z"/>
<path style="fill:#C27526;" d="M174.211,318.877H16.392C7.339,318.877,0,311.539,0,302.485s7.338-16.392,16.392-16.392h157.819
	c9.052,0,16.392,7.339,16.392,16.392C190.603,311.538,183.263,318.877,174.211,318.877z"/>
<path style="fill:#7E4F1F;" d="M174.211,286.095h-78.91v32.783h78.909c9.052,0,16.392-7.338,16.392-16.392
	S183.263,286.095,174.211,286.095z"/>
</svg>